# xmcd CD database file
#
# Track frame offsets:
#	150
#	27114
#	49030
#	81616
#	116736
#	159132
#
# Disc length: 3151 seconds
#
# Revision: 1
# Processed by: cddbd v1.5.2PL0 Copyright (c) Steve Scherf et al.
# Submitted via: CDex 1.70beta3
#
DISCID=420c4d06
DTITLE=Ivo Perelman - Joe Morris - Balazs Pandi - One
DYEAR=2013
DGENRE=Jazz
TTITLE0=Freedom
TTITLE1=What Love Can Lead to
TTITLE2=To Remember What Never Existed
TTITLE3=One
TTITLE4=Universal Truth
TTITLE5=Stigma
EXTD=YEAR: 2013
EXTT0=
EXTT1=
EXTT2=
EXTT3=
EXTT4=
EXTT5=
PLAYORDER=
